<svg
  id="Layer_2"
  data-name="Layer 2"
  xmlns="http://www.w3.org/2000/svg"
  viewBox="0 0 885.45 875.69"
  width="512"
  height="512"
>
  <defs>
    <style>
      .cls-1, .cls-2 { fill: #fc0; }
      .cls-2, .cls-3 { fill-rule: evenodd; }
      .cls-3 { fill: #7c2421; }
    </style>
  </defs>
  <g id="Layer_1-2" data-name="Layer 1">
    <g>
      <path className="cls-3" d="M444.84,854.19c-18.62,0-35.69-.73-46.81-2-53.25-6.08-95.25-18.42-144.96-42.59-39.86-19.38-74.63-43.87-106.32-74.88-31.01-30.34-56.98-64.93-77.2-102.8-20.25-37.93-34.28-78.3-41.69-120-15.71-88.38-2.12-181.48,38.26-262.14,21.62-43.18,47.25-77.92,83.09-112.65,36.3-35.17,78.59-63.06,125.7-82.92,47.08-19.84,96.83-30.74,147.85-32.4,6.56-.21,13.07-.32,19.35-.32,44.31,0,83.04,5.28,121.88,16.62,97.38,28.44,178.73,89.04,235.25,175.25,33.43,51,55.91,116.15,63.29,183.44,2.07,18.91,1.76,66.53-.57,86.35-6.17,52.46-20.25,98.93-44.33,146.24-10.67,20.98-17.77,32.43-31.62,51.08-27.88,37.51-56.96,67.02-88.92,90.19-63.84,46.3-129.15,72.19-205.54,81.45-10.77,1.31-27.8,2.06-46.71,2.06Z"/>
      <path className="cls-1" d="M442.12,43c42.4,0,79.13,5.04,115.85,15.76,92.63,27.05,169.49,84.33,223.29,166.4,31.59,48.19,52.89,110.05,59.9,174,1.91,17.43,1.6,63.18-.55,81.5-5.86,49.84-19.26,94.03-42.14,139-10.17,19.99-16.53,30.26-29.72,48.01-26.65,35.87-54.01,63.65-84.28,85.61-60.58,43.94-123.11,68.73-195.51,77.51-10.44,1.27-27.23,1.9-44.12,1.9s-33.5-.62-44.37-1.86c-50.62-5.78-90.67-17.56-138-40.56-37.63-18.29-70.76-41.63-100.68-70.9-59.15-57.88-98.66-131.89-112.76-211.2-14.87-83.63-1.91-172.4,36.31-248.75,20.56-41.06,44.68-73.75,78.83-106.83,69.08-66.92,162.07-106.11,259.3-109.27,6.34-.21,12.55-.31,18.65-.31M442.12,0c-6.5,0-13.25.11-20.04.33-53.67,1.74-105.99,13.21-155.5,34.07-49.58,20.89-94.09,50.26-132.32,87.29-37.67,36.49-64.61,73.03-87.36,118.47C4.46,324.93-9.82,422.78,6.7,515.69c7.81,43.92,22.58,86.44,43.89,126.36,21.26,39.81,48.55,76.16,81.13,108.04,33.37,32.65,69.99,58.44,111.96,78.84,51.38,24.97,96.81,38.32,151.92,44.61,11.9,1.36,29.85,2.14,49.25,2.14,11.6,0,33.42-.29,49.3-2.21,40.25-4.88,77.16-14.13,112.86-28.28,35.61-14.12,69.21-32.8,102.72-57.1,33.75-24.48,64.35-55.48,93.55-94.77,14.69-19.77,22.21-31.92,33.53-54.15,25.27-49.65,40.05-98.42,46.52-153.48,2.56-21.78,2.87-70.37.59-91.21-7.74-70.6-31.42-139.11-66.68-192.89-59.36-90.54-144.84-154.2-247.2-184.1C529.18,5.56,488.53,0,442.12,0h0Z"/>
      <path className="cls-2" d="M462.22,162.5c47.82,23.26,80.29,74.19,80.29,132.67,0,26.9-6.95,52.17-19.17,74.1l116.72,21.24c-20.68-100.22-103.86-175.54-204.93-182.77l27.09,19.76Z"/>
      <path className="cls-2" d="M325.86,324.19c-8.17-21.61-12.62-45.15-12.62-69.69,0-36.03,9.52-69.88,26.2-99.2l-95.26-70.84c-59.96,63.64-96.85,150.29-96.85,245.46,0,20.99,1.84,41.55,5.34,61.49l137.71-41.94c-1.48-8.17-2.32-16.62-2.32-25.28h37.8Z"/>
      <path className="cls-2" d="M524.66,367.65c5.34,12.04,8.38,25.28,8.38,39.2,0,53.89-43.5,97.56-97.22,97.56-16.34,0-31.73-4.07-45.29-11.25l-59.96,123.54c42.65,35.45,97.64,56.86,157.35,56.86,66.26,0,125.71-26.41,169.96-69.26l-133.22-236.65Z"/>
    </g>
  </g>
</svg>
