<?xml version="1.0" encoding="UTF-8"?>
<svg width="300" height="600" viewBox="0 0 300 600" xmlns="http://www.w3.org/2000/svg">
  <!-- Head (back view) -->
  <ellipse cx="150" cy="60" rx="35" ry="45" fill="#f3f4f6" stroke="#d1d5db" stroke-width="2"/>
  
  <!-- Neck -->
  <rect x="135" y="95" width="30" height="25" fill="#f3f4f6" stroke="#d1d5db" stroke-width="1"/>
  
  <!-- Upper back/torso -->
  <ellipse cx="150" cy="200" rx="55" ry="85" fill="#f9fafb" stroke="#d1d5db" stroke-width="2"/>
  
  <!-- Spine line -->
  <line x1="150" y1="110" x2="150" y2="350" stroke="#9ca3af" stroke-width="2"/>
  
  <!-- Arms (back view) -->
  <ellipse cx="90" cy="160" rx="15" ry="60" fill="#f3f4f6" stroke="#d1d5db" stroke-width="1" transform="rotate(-15 90 160)"/>
  <ellipse cx="210" cy="160" rx="15" ry="60" fill="#f3f4f6" stroke="#d1d5db" stroke-width="1" transform="rotate(15 210 160)"/>
  
  <!-- Forearms -->
  <ellipse cx="70" cy="240" rx="12" ry="45" fill="#f3f4f6" stroke="#d1d5db" stroke-width="1" transform="rotate(-10 70 240)"/>
  <ellipse cx="230" cy="240" rx="12" ry="45" fill="#f3f4f6" stroke="#d1d5db" stroke-width="1" transform="rotate(10 230 240)"/>
  
  <!-- Hands -->
  <ellipse cx="65" cy="290" rx="8" ry="15" fill="#f3f4f6" stroke="#d1d5db" stroke-width="1"/>
  <ellipse cx="235" cy="290" rx="8" ry="15" fill="#f3f4f6" stroke="#d1d5db" stroke-width="1"/>
  
  <!-- Lower back/pelvis -->
  <ellipse cx="150" cy="320" rx="45" ry="35" fill="#f9fafb" stroke="#d1d5db" stroke-width="2"/>
  
  <!-- Posterior thighs -->
  <ellipse cx="125" cy="400" rx="18" ry="65" fill="#f3f4f6" stroke="#d1d5db" stroke-width="1"/>
  <ellipse cx="175" cy="400" rx="18" ry="65" fill="#f3f4f6" stroke="#d1d5db" stroke-width="1"/>
  
  <!-- Posterior lower legs -->
  <ellipse cx="125" cy="500" rx="15" ry="60" fill="#f3f4f6" stroke="#d1d5db" stroke-width="1"/>
  <ellipse cx="175" cy="500" rx="15" ry="60" fill="#f3f4f6" stroke="#d1d5db" stroke-width="1"/>
  
  <!-- Feet (back view) -->
  <ellipse cx="125" cy="570" rx="12" ry="20" fill="#f3f4f6" stroke="#d1d5db" stroke-width="1"/>
  <ellipse cx="175" cy="570" rx="12" ry="20" fill="#f3f4f6" stroke="#d1d5db" stroke-width="1"/>
    <!-- Clickable regions -->
  <g id="regions">    <!-- Head & Neck region -->
    <ellipse cx="150" cy="60" rx="40" ry="50" fill="rgba(59, 130, 246, 0.1)" stroke="rgba(59, 130, 246, 0.3)" stroke-width="2" 
             class="region-zone" data-region="HEAD &amp; NECK" style="cursor: pointer; transition: all 0.2s ease;"/>
    
    <!-- Arms region -->
    <g class="region-zone" data-region="ARMS" style="cursor: pointer;">
      <ellipse cx="90" cy="160" rx="20" ry="65" fill="rgba(59, 130, 246, 0.1)" stroke="rgba(59, 130, 246, 0.3)" stroke-width="1" transform="rotate(-15 90 160)" style="transition: all 0.2s ease;"/>
      <ellipse cx="210" cy="160" rx="20" ry="65" fill="rgba(59, 130, 246, 0.1)" stroke="rgba(59, 130, 246, 0.3)" stroke-width="1" transform="rotate(15 210 160)" style="transition: all 0.2s ease;"/>
      <ellipse cx="70" cy="240" rx="15" ry="50" fill="rgba(59, 130, 246, 0.1)" stroke="rgba(59, 130, 246, 0.3)" stroke-width="1" transform="rotate(-10 70 240)" style="transition: all 0.2s ease;"/>
      <ellipse cx="230" cy="240" rx="15" ry="50" fill="rgba(59, 130, 246, 0.1)" stroke="rgba(59, 130, 246, 0.3)" stroke-width="1" transform="rotate(10 230 240)" style="transition: all 0.2s ease;"/>
    </g>
    
    <!-- Trunk/Back region -->
    <ellipse cx="150" cy="200" rx="60" ry="90" fill="rgba(59, 130, 246, 0.1)" stroke="rgba(59, 130, 246, 0.3)" stroke-width="2" 
             class="region-zone" data-region="TRUNK" style="cursor: pointer; transition: all 0.2s ease;"/>
    
    <!-- Legs region -->
    <g class="region-zone" data-region="LEGS" style="cursor: pointer;">
      <ellipse cx="125" cy="400" rx="23" ry="70" fill="rgba(59, 130, 246, 0.1)" stroke="rgba(59, 130, 246, 0.3)" stroke-width="1" style="transition: all 0.2s ease;"/>
      <ellipse cx="175" cy="400" rx="23" ry="70" fill="rgba(59, 130, 246, 0.1)" stroke="rgba(59, 130, 246, 0.3)" stroke-width="1" style="transition: all 0.2s ease;"/>
      <ellipse cx="125" cy="500" rx="20" ry="65" fill="rgba(59, 130, 246, 0.1)" stroke="rgba(59, 130, 246, 0.3)" stroke-width="1" style="transition: all 0.2s ease;"/>
      <ellipse cx="175" cy="500" rx="20" ry="65" fill="rgba(59, 130, 246, 0.1)" stroke="rgba(59, 130, 246, 0.3)" stroke-width="1" style="transition: all 0.2s ease;"/>
    </g>
    
    <!-- Feet region -->
    <g class="region-zone" data-region="FEET" style="cursor: pointer;">
      <ellipse cx="125" cy="570" rx="17" ry="25" fill="rgba(59, 130, 246, 0.1)" stroke="rgba(59, 130, 246, 0.3)" stroke-width="1" style="transition: all 0.2s ease;"/>
      <ellipse cx="175" cy="570" rx="17" ry="25" fill="rgba(59, 130, 246, 0.1)" stroke="rgba(59, 130, 246, 0.3)" stroke-width="1" style="transition: all 0.2s ease;"/>
    </g>
  </g>
  
  <!-- Joint markers -->
  <g id="joints">
    <circle cx="105" cy="130" r="3" fill="#ef4444" class="joint-marker" data-joint="shoulder-left"/>
    <circle cx="195" cy="130" r="3" fill="#ef4444" class="joint-marker" data-joint="shoulder-right"/>
    <circle cx="75" cy="210" r="3" fill="#ef4444" class="joint-marker" data-joint="elbow-left"/>
    <circle cx="225" cy="210" r="3" fill="#ef4444" class="joint-marker" data-joint="elbow-right"/>
    <circle cx="65" cy="275" r="3" fill="#ef4444" class="joint-marker" data-joint="wrist-left"/>
    <circle cx="235" cy="275" r="3" fill="#ef4444" class="joint-marker" data-joint="wrist-right"/>
    <circle cx="125" cy="350" r="3" fill="#ef4444" class="joint-marker" data-joint="hip-left"/>
    <circle cx="175" cy="350" r="3" fill="#ef4444" class="joint-marker" data-joint="hip-right"/>
    <circle cx="125" cy="450" r="3" fill="#ef4444" class="joint-marker" data-joint="knee-left"/>
    <circle cx="175" cy="450" r="3" fill="#ef4444" class="joint-marker" data-joint="knee-right"/>
    <circle cx="125" cy="540" r="3" fill="#ef4444" class="joint-marker" data-joint="ankle-left"/>
    <circle cx="175" cy="540" r="3" fill="#ef4444" class="joint-marker" data-joint="ankle-right"/>
  </g>
</svg>
