<svg width="400" height="800" viewBox="0 0 400 800" xmlns="http://www.w3.org/2000/svg">
  <!-- Background -->
  <rect width="400" height="800" fill="#f8f9fa"/>
  
  <!-- Human Figure - Back View -->
  <g id="human-figure-back">
    <!-- Head -->
    <ellipse cx="200" cy="80" rx="40" ry="50" fill="#DDBF94"/>
    <!-- Hair -->
    <path d="M160 50 Q200 20 240 50 Q240 65 200 70 Q160 65 160 50" fill="#8B4513"/>
    
    <!-- Neck -->
    <rect x="185" y="130" width="30" height="25" fill="#DDBF94"/>
    
    <!-- Torso (Back view) -->
    <path d="M160 155 Q200 150 240 155 L235 300 Q200 305 165 300 Z" fill="#DDBF94"/>
    <!-- Back muscles definition -->
    <ellipse cx="180" cy="190" rx="18" ry="25" fill="none" stroke="#CDA776" stroke-width="1"/>
    <ellipse cx="220" cy="190" rx="18" ry="25" fill="none" stroke="#CDA776" stroke-width="1"/>
    <!-- Spine -->
    <line x1="200" y1="155" x2="200" y2="300" stroke="#CDA776" stroke-width="2"/>
    <!-- Lower back -->
    <path d="M175 260 Q200 265 225 260 Q225 285 200 290 Q175 285 175 260" fill="none" stroke="#CDA776" stroke-width="1"/>
    
    <!-- Arms (Back view) -->
    <!-- Left arm -->
    <ellipse cx="140" cy="200" rx="15" ry="60" fill="#DDBF94"/>
    <ellipse cx="125" cy="280" rx="12" ry="40" fill="#DDBF94"/>
    <ellipse cx="115" cy="340" rx="8" ry="25" fill="#DDBF94"/>
    
    <!-- Right arm -->
    <ellipse cx="260" cy="200" rx="15" ry="60" fill="#DDBF94"/>
    <ellipse cx="275" cy="280" rx="12" ry="40" fill="#DDBF94"/>
    <ellipse cx="285" cy="340" rx="8" ry="25" fill="#DDBF94"/>
    
    <!-- Legs (Back view) -->
    <!-- Left leg -->
    <ellipse cx="180" cy="420" rx="20" ry="80" fill="#DDBF94"/>
    <ellipse cx="175" cy="520" rx="18" ry="70" fill="#DDBF94"/>
    <ellipse cx="170" cy="620" rx="12" ry="40" fill="#DDBF94"/>
    
    <!-- Right leg -->
    <ellipse cx="220" cy="420" rx="20" ry="80" fill="#DDBF94"/>
    <ellipse cx="225" cy="520" rx="18" ry="70" fill="#DDBF94"/>
    <ellipse cx="230" cy="620" rx="12" ry="40" fill="#DDBF94"/>
    
    <!-- Feet (Back view) -->
    <ellipse cx="165" cy="680" rx="15" ry="35" fill="#DDBF94"/>
    <ellipse cx="235" cy="680" rx="15" ry="35" fill="#DDBF94"/>
  </g>
  
  <!-- Clickable Region Boundaries -->
  <!-- Head & Neck Region (Yellow/Orange) -->
  <rect x="140" y="20" width="120" height="140" 
        fill="none" stroke="#FFA500" stroke-width="3" 
        class="region-boundary" data-region="head-neck" rx="10"/>
  <text x="200" y="100" text-anchor="middle" font-family="Arial, sans-serif" font-size="16" font-weight="bold" fill="#333">HEAD & NECK</text>
  
  <!-- Arms Region (Orange) -->
  <rect x="100" y="160" width="60" height="220" 
        fill="none" stroke="#FFA500" stroke-width="3" 
        class="region-boundary" data-region="arms" rx="10"/>
  <rect x="240" y="160" width="60" height="220" 
        fill="none" stroke="#FFA500" stroke-width="3" 
        class="region-boundary" data-region="arms" rx="10"/>
  <text x="370" y="270" text-anchor="middle" font-family="Arial, sans-serif" font-size="16" font-weight="bold" fill="#333" transform="rotate(90 370 270)">ARMS</text>
  
  <!-- Upper Back Region (Green) -->
  <rect x="150" y="160" width="100" height="85" 
        fill="none" stroke="#00AA00" stroke-width="3" 
        class="region-boundary" data-region="upper-back" rx="10"/>
  <text x="200" y="205" text-anchor="middle" font-family="Arial, sans-serif" font-size="16" font-weight="bold" fill="#333">UPPER BACK</text>
  
  <!-- Lower Back Region (Purple) -->
  <rect x="150" y="245" width="100" height="85" 
        fill="none" stroke="#8A2BE2" stroke-width="3" 
        class="region-boundary" data-region="lower-back" rx="10"/>
  <text x="200" y="290" text-anchor="middle" font-family="Arial, sans-serif" font-size="16" font-weight="bold" fill="#333">LOWER BACK</text>
  
  <!-- Legs Region (Red) -->
  <rect x="150" y="330" width="100" height="280" 
        fill="none" stroke="#CC0000" stroke-width="3" 
        class="region-boundary" data-region="legs" rx="10"/>
  <text x="200" y="470" text-anchor="middle" font-family="Arial, sans-serif" font-size="16" font-weight="bold" fill="#333">LEGS</text>
  
  <!-- Feet Region (Blue) -->
  <rect x="140" y="610" width="120" height="100" 
        fill="none" stroke="#0066CC" stroke-width="3" 
        class="region-boundary" data-region="feet" rx="10"/>
  <text x="200" y="665" text-anchor="middle" font-family="Arial, sans-serif" font-size="16" font-weight="bold" fill="#333">FEET</text>
  
  <!-- Interactive styles -->
  <style>
    .region-boundary {
      cursor: pointer;
      transition: all 0.3s ease;
    }
    .region-boundary:hover {
      stroke-width: 5;
      filter: drop-shadow(0 0 10px currentColor);
    }
    .region-boundary.selected {
      stroke-width: 6;
      filter: drop-shadow(0 0 15px currentColor);
    }
  </style>
</svg>
