<svg width="512" height="512" viewBox="0 0 512 512" xmlns="http://www.w3.org/2000/svg">
  <circle cx="256" cy="256" r="250" fill="#B7950B" stroke="#000" stroke-width="12"/>
  <g transform="translate(256,256)">
    <path d="M 0,-120 A 120,120 0 0,1 104,60 Q 0,20 -104,60 A 120,120 0 0,1 0,-120 Z" fill="#922B21"/>
    <path d="M -104,60 A 120,120 0 0,0 0,120 Q 0,20 104,60 A 120,120 0 0,0 -104,60 Z" fill="#641E16"/>
    <path d="M 0,120 A 120,120 0 0,1 0,-120 Q 0,20 0,120 Z" fill="#78281F"/>
  </g>
</svg>