<svg width="128" height="128" viewBox="0 0 128 128" xmlns="http://www.w3.org/2000/svg">
  <defs>
    <!-- Gold gradient for circle and triskele -->
    <radialGradient id="goldGradient" cx="50%" cy="30%" r="70%">
      <stop offset="0%" style="stop-color:#FFD700;stop-opacity:1" />
      <stop offset="50%" style="stop-color:#DAA520;stop-opacity:1" />
      <stop offset="100%" style="stop-color:#B8860B;stop-opacity:1" />
    </radialGradient>
    
    <!-- Maroon red gradient for center fill -->
    <radialGradient id="maroonGradient" cx="50%" cy="50%" r="60%">
      <stop offset="0%" style="stop-color:#8B0000;stop-opacity:1" />
      <stop offset="50%" style="stop-color:#660000;stop-opacity:1" />
      <stop offset="100%" style="stop-color:#4A0000;stop-opacity:1" />
    </radialGradient>
  </defs>
  
  <!-- Maroon center fill -->
  <circle cx="64" cy="64" r="56" fill="url(#maroonGradient)"/>
  
  <!-- Thin outer gold circle -->
  <circle cx="64" cy="64" r="56" fill="none" stroke="url(#goldGradient)" stroke-width="3"/>
  
  <!-- Triple spiral (triskele) in gold with rounded tips -->
  <g transform="translate(64,64)" fill="none" stroke="url(#goldGradient)" stroke-width="6" stroke-linecap="round">
    
    <!-- First spiral arm - shorter, fatter, with rounded points -->
    <path d="M 0,0 
             C 0,-6 6,-8 12,-6 
             C 20,-2 22,8 18,16 
             C 12,26 -8,28 -18,20 
             C -30,10 -32,-10 -20,-22 
             C -6,-34 20,-36 36,-22"/>
    
    <!-- Second spiral arm (120° rotation) -->
    <g transform="rotate(120)">
      <path d="M 0,0 
               C 0,-6 6,-8 12,-6 
               C 20,-2 22,8 18,16 
               C 12,26 -8,28 -18,20 
               C -30,10 -32,-10 -20,-22 
               C -6,-34 20,-36 36,-22"/>
    </g>
    
    <!-- Third spiral arm (240° rotation) -->
    <g transform="rotate(240)">
      <path d="M 0,0 
               C 0,-6 6,-8 12,-6 
               C 20,-2 22,8 18,16 
               C 12,26 -8,28 -18,20 
               C -30,10 -32,-10 -20,-22 
               C -6,-34 20,-36 36,-22"/>
    </g>
    
  </g>
</svg>